<svg width="80" height="80" viewBox="0 0 80 80" fill="none" xmlns="http://www.w3.org/2000/svg">
<path d="M67.7053 42.1577L69.431 35.718C71.445 28.2011 72.452 24.4427 71.6937 21.1901C71.095 18.6219 69.748 16.2889 67.8233 14.4862C65.3857 12.2032 61.627 11.1961 54.1103 9.18194C46.5933 7.16777 42.8347 6.1607 39.5823 6.9191C37.014 7.5179 34.681 8.86484 32.8784 10.7896C30.9236 12.8766 29.9043 15.9319 28.3874 21.4854C28.1326 22.418 27.8638 23.4211 27.5742 24.5019L25.8486 30.9421C23.8344 38.459 22.8274 42.2173 23.5858 45.47C24.1846 48.0383 25.5315 50.3713 27.4562 52.174C29.8938 54.457 33.6523 55.464 41.1693 57.4783C47.9447 59.2937 51.6663 60.291 54.7167 59.9147C55.0507 59.8737 55.3763 59.816 55.6973 59.741C58.2653 59.1423 60.5983 57.7953 62.401 55.8707C64.684 53.433 65.6913 49.6747 67.7053 42.1577Z" stroke="#1C274C" stroke-width="5"/>
<path opacity="0.5" d="M54.7167 59.9137C54.0217 62.042 52.7997 63.9673 51.1567 65.5063C48.719 67.7893 44.9603 68.7963 37.4437 70.8107C29.9266 72.8247 26.1681 73.8317 22.9155 73.0733C20.3474 72.4747 18.0144 71.1277 16.2117 69.203C13.9286 66.7653 12.9216 63.007 10.9074 55.49L9.18194 49.0503C7.16777 41.5333 6.1607 37.775 6.9191 34.5223C7.5179 31.9542 8.86484 29.6213 10.7896 27.8186C13.2272 25.5355 16.9856 24.5284 24.5026 22.5143C25.9247 22.1332 27.2123 21.7882 28.3874 21.4844" stroke="#1C274C" stroke-width="5"/>
<path d="M39.2563 33.3333L55.355 37.647" stroke="#1C274C" stroke-width="5" stroke-linecap="round"/>
<path opacity="0.5" d="M36.6667 42.9917L46.326 45.5797" stroke="#1C274C" stroke-width="5" stroke-linecap="round"/>
</svg>
